<svg xmlns="http://www.w3.org/2000/svg" xmlns:xlink="http://www.w3.org/1999/xlink" viewBox="0,0,256,256" width="48px" height="48px"><g fill="none" fill-rule="nonzero" stroke="none" stroke-width="1" stroke-linecap="butt" stroke-linejoin="miter" stroke-miterlimit="10" stroke-dasharray="" stroke-dashoffset="0" font-family="none" font-weight="none" font-size="none" text-anchor="none" style="mix-blend-mode: normal"><g transform="scale(5.33333,5.33333)"><path d="M37,36h-20c-2.761,0 -5,-2.239 -5,-5v-20c0,-2.761 2.239,-5 5,-5h20c2.761,0 5,2.239 5,5v20c0,2.761 -2.239,5 -5,5zM21,30h14v-11.5c0,-3.038 -2.462,-5.5 -5.5,-5.5h-11.5v14c0,1.657 1.343,3 3,3z" fill="#409de9"></path><path d="M31,42h-20c-2.761,0 -5,-2.239 -5,-5v-20c0,-2.761 2.239,-5 5,-5h20c2.761,0 5,2.239 5,5v20c0,2.761 -2.239,5 -5,5zM17.5,36h12.5v-15c0,-1.657 -1.343,-3 -3,-3h-12c-1.657,0 -3,1.343 -3,3v9.5c0,3.038 2.462,5.5 5.5,5.5z" fill="#fb8c00"></path><path d="M36,26v1c0,1.657 -1.343,3 -3,3h-10v6h14c2.75,0 5,-2.25 5,-5v-5z" fill="#409de9"></path></g></g></svg>